<svg width="168" height="239" viewBox="0 0 168 239" fill="none" xmlns="http://www.w3.org/2000/svg">
<path d="M0.167974 162.383V225.167C0.167974 228.808 1.61962 232.3 4.20358 234.874C6.78753 237.449 10.2921 238.895 13.9464 238.895H153.743C157.395 238.892 160.897 237.444 163.478 234.87C166.06 232.296 167.51 228.806 167.51 225.167V162.383C167.511 160.58 167.156 158.795 166.465 157.129C165.774 155.462 164.761 153.948 163.483 152.672C162.204 151.396 160.686 150.384 159.015 149.692C157.344 149.001 155.553 148.644 153.743 148.643H104.421C99.7114 148.643 95.1947 146.779 91.8642 143.461C88.5336 140.144 86.662 135.644 86.6609 130.951V32.8643C86.7073 26.7797 88.6967 20.8679 92.341 15.9854C93.6043 14.2706 94.2617 12.187 94.2104 10.0605C94.1762 8.53232 93.7794 7.03392 93.0526 5.68782C92.3257 4.34172 91.2895 3.18614 90.0285 2.31554C88.7675 1.44494 87.3176 0.884042 85.7974 0.678723C84.2772 0.473403 82.7298 0.62948 81.2817 1.1342C79.8336 1.63892 78.526 2.47794 77.4657 3.58268C76.4054 4.68742 75.6226 6.0265 75.1813 7.49043C74.74 8.95436 74.6526 10.5016 74.9264 12.0056C75.2003 13.5096 75.8275 14.9277 76.7567 16.1439C80.4071 20.9756 82.3636 26.8683 82.3254 32.9158V130.963C82.3212 135.652 80.4498 140.147 77.1222 143.461C73.7946 146.776 69.2827 148.64 64.5773 148.643H13.9464C12.136 148.643 10.3433 148.998 8.67088 149.689C6.99842 150.38 5.47898 151.392 4.19938 152.668C2.91978 153.944 1.90511 155.459 1.21338 157.126C0.521653 158.793 0.166406 160.579 0.167974 162.383Z" fill="#2D2E2D"/>
</svg>
